<svg xmlns="http://www.w3.org/2000/svg" xmlns:xlink="http://www.w3.org/1999/xlink" width="170" zoomAndPan="magnify" viewBox="0 0 127.5 104.999996" height="140" preserveAspectRatio="xMidYMid meet" version="1.0"><defs><g/></defs><g fill="#ffffff" fill-opacity="1"><g transform="translate(16.970097, 57.745104)"><g><path d="M 9.21875 -12.28125 C 10.613281 -12.28125 11.71875 -11.8125 12.53125 -10.875 C 13.351562 -9.945312 13.765625 -8.6875 13.765625 -7.09375 L 13.765625 0 L 9.5 0 L 9.5 -6.53125 C 9.5 -7.226562 9.316406 -7.773438 8.953125 -8.171875 C 8.597656 -8.566406 8.117188 -8.765625 7.515625 -8.765625 C 6.867188 -8.765625 6.363281 -8.566406 6 -8.171875 C 5.644531 -7.773438 5.46875 -7.226562 5.46875 -6.53125 L 5.46875 0 L 1.21875 0 L 1.21875 -16.0625 L 5.46875 -16.0625 L 5.46875 -10.4375 C 5.84375 -10.988281 6.351562 -11.429688 7 -11.765625 C 7.644531 -12.109375 8.382812 -12.28125 9.21875 -12.28125 Z M 9.21875 -12.28125 "/></g></g></g><g fill="#ffffff" fill-opacity="1"><g transform="translate(31.859174, 57.745104)"><g><path d="M 0.515625 -6.09375 C 0.515625 -7.351562 0.742188 -8.453125 1.203125 -9.390625 C 1.660156 -10.335938 2.28125 -11.0625 3.0625 -11.5625 C 3.851562 -12.070312 4.734375 -12.328125 5.703125 -12.328125 C 6.546875 -12.328125 7.269531 -12.160156 7.875 -11.828125 C 8.488281 -11.492188 8.957031 -11.046875 9.28125 -10.484375 L 9.28125 -12.171875 L 13.546875 -12.171875 L 13.546875 0 L 9.28125 0 L 9.28125 -1.6875 C 8.957031 -1.125 8.484375 -0.675781 7.859375 -0.34375 C 7.242188 -0.0078125 6.523438 0.15625 5.703125 0.15625 C 4.734375 0.15625 3.851562 -0.0976562 3.0625 -0.609375 C 2.28125 -1.117188 1.660156 -1.84375 1.203125 -2.78125 C 0.742188 -3.726562 0.515625 -4.832031 0.515625 -6.09375 Z M 9.28125 -6.09375 C 9.28125 -6.875 9.066406 -7.488281 8.640625 -7.9375 C 8.222656 -8.382812 7.703125 -8.609375 7.078125 -8.609375 C 6.441406 -8.609375 5.910156 -8.390625 5.484375 -7.953125 C 5.066406 -7.515625 4.859375 -6.894531 4.859375 -6.09375 C 4.859375 -5.3125 5.066406 -4.691406 5.484375 -4.234375 C 5.910156 -3.785156 6.441406 -3.5625 7.078125 -3.5625 C 7.703125 -3.5625 8.222656 -3.785156 8.640625 -4.234375 C 9.066406 -4.679688 9.28125 -5.300781 9.28125 -6.09375 Z M 9.28125 -6.09375 "/></g></g></g><g fill="#ffffff" fill-opacity="1"><g transform="translate(46.618043, 57.745104)"><g><path d="M 5.46875 -10.03125 C 5.945312 -10.71875 6.523438 -11.265625 7.203125 -11.671875 C 7.878906 -12.078125 8.609375 -12.28125 9.390625 -12.28125 L 9.390625 -7.75 L 8.203125 -7.75 C 7.273438 -7.75 6.585938 -7.566406 6.140625 -7.203125 C 5.691406 -6.835938 5.46875 -6.207031 5.46875 -5.3125 L 5.46875 0 L 1.21875 0 L 1.21875 -12.171875 L 5.46875 -12.171875 Z M 5.46875 -10.03125 "/></g></g></g><g fill="#ffffff" fill-opacity="1"><g transform="translate(56.319831, 57.745104)"><g><path d="M 3.359375 -13.296875 C 2.609375 -13.296875 2.003906 -13.503906 1.546875 -13.921875 C 1.097656 -14.335938 0.875 -14.851562 0.875 -15.46875 C 0.875 -16.101562 1.097656 -16.628906 1.546875 -17.046875 C 2.003906 -17.472656 2.609375 -17.6875 3.359375 -17.6875 C 4.097656 -17.6875 4.695312 -17.472656 5.15625 -17.046875 C 5.613281 -16.628906 5.84375 -16.101562 5.84375 -15.46875 C 5.84375 -14.851562 5.613281 -14.335938 5.15625 -13.921875 C 4.695312 -13.503906 4.097656 -13.296875 3.359375 -13.296875 Z M 5.46875 -12.171875 L 5.46875 0 L 1.21875 0 L 1.21875 -12.171875 Z M 5.46875 -12.171875 "/></g></g></g><g fill="#ffffff" fill-opacity="1"><g transform="translate(63.004731, 57.745104)"><g><path d="M 9.1875 -12.28125 C 10.582031 -12.28125 11.691406 -11.8125 12.515625 -10.875 C 13.347656 -9.945312 13.765625 -8.6875 13.765625 -7.09375 L 13.765625 0 L 9.5 0 L 9.5 -6.53125 C 9.5 -7.226562 9.316406 -7.773438 8.953125 -8.171875 C 8.597656 -8.566406 8.117188 -8.765625 7.515625 -8.765625 C 6.867188 -8.765625 6.363281 -8.566406 6 -8.171875 C 5.644531 -7.773438 5.46875 -7.226562 5.46875 -6.53125 L 5.46875 0 L 1.21875 0 L 1.21875 -12.171875 L 5.46875 -12.171875 L 5.46875 -10.4375 C 5.84375 -10.988281 6.347656 -11.429688 6.984375 -11.765625 C 7.617188 -12.109375 8.351562 -12.28125 9.1875 -12.28125 Z M 9.1875 -12.28125 "/></g></g></g><g fill="#ffffff" fill-opacity="1"><g transform="translate(77.893808, 57.745104)"><g><path d="M 3.359375 -13.296875 C 2.609375 -13.296875 2.003906 -13.503906 1.546875 -13.921875 C 1.097656 -14.335938 0.875 -14.851562 0.875 -15.46875 C 0.875 -16.101562 1.097656 -16.628906 1.546875 -17.046875 C 2.003906 -17.472656 2.609375 -17.6875 3.359375 -17.6875 C 4.097656 -17.6875 4.695312 -17.472656 5.15625 -17.046875 C 5.613281 -16.628906 5.84375 -16.101562 5.84375 -15.46875 C 5.84375 -14.851562 5.613281 -14.335938 5.15625 -13.921875 C 4.695312 -13.503906 4.097656 -13.296875 3.359375 -13.296875 Z M 5.46875 -12.171875 L 5.46875 0 L 1.21875 0 L 1.21875 -12.171875 Z M 5.46875 -12.171875 "/></g></g></g><g fill="#ffffff" fill-opacity="1"><g transform="translate(84.578708, 57.745104)"><g/></g></g><g fill="#ffffff" fill-opacity="1"><g transform="translate(88.724222, 57.745104)"><g><path d="M 0.515625 -6.09375 C 0.515625 -7.351562 0.742188 -8.453125 1.203125 -9.390625 C 1.660156 -10.335938 2.28125 -11.0625 3.0625 -11.5625 C 3.851562 -12.070312 4.734375 -12.328125 5.703125 -12.328125 C 6.546875 -12.328125 7.269531 -12.160156 7.875 -11.828125 C 8.488281 -11.492188 8.957031 -11.046875 9.28125 -10.484375 L 9.28125 -12.171875 L 13.546875 -12.171875 L 13.546875 0 L 9.28125 0 L 9.28125 -1.6875 C 8.957031 -1.125 8.484375 -0.675781 7.859375 -0.34375 C 7.242188 -0.0078125 6.523438 0.15625 5.703125 0.15625 C 4.734375 0.15625 3.851562 -0.0976562 3.0625 -0.609375 C 2.28125 -1.117188 1.660156 -1.84375 1.203125 -2.78125 C 0.742188 -3.726562 0.515625 -4.832031 0.515625 -6.09375 Z M 9.28125 -6.09375 C 9.28125 -6.875 9.066406 -7.488281 8.640625 -7.9375 C 8.222656 -8.382812 7.703125 -8.609375 7.078125 -8.609375 C 6.441406 -8.609375 5.910156 -8.390625 5.484375 -7.953125 C 5.066406 -7.515625 4.859375 -6.894531 4.859375 -6.09375 C 4.859375 -5.3125 5.066406 -4.691406 5.484375 -4.234375 C 5.910156 -3.785156 6.441406 -3.5625 7.078125 -3.5625 C 7.703125 -3.5625 8.222656 -3.785156 8.640625 -4.234375 C 9.066406 -4.679688 9.28125 -5.300781 9.28125 -6.09375 Z M 9.28125 -6.09375 "/></g></g></g><g fill="#c6967a" fill-opacity="1"><g transform="translate(103.503678, 57.745104)"><g><path d="M 3.28125 0.171875 C 2.53125 0.171875 1.925781 -0.03125 1.46875 -0.4375 C 1.007812 -0.851562 0.78125 -1.378906 0.78125 -2.015625 C 0.78125 -2.648438 1.007812 -3.175781 1.46875 -3.59375 C 1.925781 -4.019531 2.53125 -4.234375 3.28125 -4.234375 C 4.019531 -4.234375 4.613281 -4.019531 5.0625 -3.59375 C 5.519531 -3.175781 5.75 -2.648438 5.75 -2.015625 C 5.75 -1.390625 5.519531 -0.867188 5.0625 -0.453125 C 4.613281 -0.0351562 4.019531 0.171875 3.28125 0.171875 Z M 3.28125 0.171875 "/></g></g></g></svg>